<svg width="300" height="220" viewBox="0 0 300 220" fill="none" xmlns="http://www.w3.org/2000/svg" role="img" aria-labelledby="title desc">
  <title id="title">改善提案の声が集まるイメージ</title>
  <desc id="desc">喜んで改善提案をする複数の従業員から、中央の報告革命へ声が集まっている線画イラスト。</desc>
  <path d="M32 178c44 25 162 26 226 0" stroke="#e8ddd2" stroke-width="5" stroke-linecap="round"/>
  <rect x="90" y="52" width="120" height="112" rx="13" fill="#fffdf9" stroke="#17191f" stroke-width="6"/>
  <path d="M113 78h74M113 105h74M113 132h48" stroke="#17191f" stroke-width="6" stroke-linecap="round"/>
  <circle cx="101" cy="78" r="5" fill="#f15a19"/>
  <circle cx="101" cy="105" r="5" fill="#4b8b78"/>
  <circle cx="101" cy="132" r="5" fill="#f15a19"/>
  <path d="M67 72c10 9 19 13 31 16M64 128c12-7 22-10 34-12M233 73c-11 9-21 13-34 16M235 131c-12-8-24-12-36-14" stroke="#f15a19" stroke-width="4" stroke-linecap="round"/>
  <path d="M75 60h-36c-10 0-18 8-18 18v12c0 10 8 18 18 18h12l-3 18 20-18h7c10 0 18-8 18-18V78c0-10-8-18-18-18Z" fill="#fffdf9" stroke="#17191f" stroke-width="5" stroke-linejoin="round"/>
  <path d="M45 84h22" stroke="#f15a19" stroke-width="5" stroke-linecap="round"/>
  <circle cx="54" cy="42" r="18" fill="#fffdf9" stroke="#17191f" stroke-width="5"/>
  <path d="M25 171v-18c0-19 12-34 29-34s29 15 29 34v18" fill="#eef3f5"/>
  <path d="M25 171v-18c0-19 12-34 29-34s29 15 29 34v18" stroke="#17191f" stroke-width="5" stroke-linecap="round"/>
  <path d="M43 145c6 8 16 8 22 0" stroke="#f15a19" stroke-width="4" stroke-linecap="round"/>
  <path d="M245 58h24c10 0 18 8 18 18v14c0 10-8 18-18 18h-8l-20 18 3-18h-15c-10 0-18-8-18-18V76c0-10 8-18 18-18h16Z" fill="#fffdf9" stroke="#17191f" stroke-width="5" stroke-linejoin="round"/>
  <path d="M237 83h27" stroke="#4b8b78" stroke-width="5" stroke-linecap="round"/>
  <circle cx="247" cy="42" r="18" fill="#fffdf9" stroke="#17191f" stroke-width="5"/>
  <path d="M217 171v-18c0-19 13-34 30-34s30 15 30 34v18" fill="#eef3f5"/>
  <path d="M217 171v-18c0-19 13-34 30-34s30 15 30 34v18" stroke="#17191f" stroke-width="5" stroke-linecap="round"/>
  <path d="M237 145c6 8 16 8 22 0" stroke="#f15a19" stroke-width="4" stroke-linecap="round"/>
  <circle cx="149" cy="29" r="18" fill="#fffdf9" stroke="#17191f" stroke-width="5"/>
  <path d="M116 49c5-15 17-25 33-25s28 10 33 25" stroke="#17191f" stroke-width="5" stroke-linecap="round"/>
  <path d="M136 42c7 7 18 7 25 0" stroke="#f15a19" stroke-width="4" stroke-linecap="round"/>
  <path d="M150 53v21" stroke="#4b8b78" stroke-width="4" stroke-linecap="round"/>
  <circle cx="150" cy="181" r="18" fill="#fffdf9" stroke="#17191f" stroke-width="5"/>
  <path d="M117 211v-14c0-18 14-31 33-31s33 13 33 31v14" fill="#eef3f5"/>
  <path d="M117 211v-14c0-18 14-31 33-31s33 13 33 31v14" stroke="#17191f" stroke-width="5" stroke-linecap="round"/>
  <path d="M139 193c6 7 16 7 22 0" stroke="#f15a19" stroke-width="4" stroke-linecap="round"/>
  <path d="M150 162v-20" stroke="#4b8b78" stroke-width="4" stroke-linecap="round"/>
  <circle cx="214" cy="166" r="8" fill="#f15a19"/>
  <circle cx="86" cy="167" r="8" fill="#4b8b78"/>
</svg>
